<?xml version="1.0" encoding="UTF-8"?>
<svg id="Capa_2" data-name="Capa 2" xmlns="http://www.w3.org/2000/svg" viewBox="0 0 70.75 69.52">
  <defs>
    <style>
      .cls-1 {
        fill: #fff;
      }
    </style>
  </defs>
  <g id="Capa_1-2" data-name="Capa 1">
    <g>
      <path class="cls-1" d="m48.69,45.55c-6.24-3.13-11.37-7.69-16.07-12.75-3.59-3.87-6.81-8.01-8.95-12.88-.83-1.88-1.48-3.83-1.12-5.96-.21.41-.44.82-.63,1.24C14.81,31.19,7.72,47.2.59,63.18c-.51,1.14-.53,2.17.22,3.13.68.87,1.42,1.71,2.26,2.41,1.09.92,2.28,1.02,3.68.39,15.78-7.06,31.59-14.06,47.39-21.08.57-.25,1.12-.55,1.68-.83-2.64.39-4.92-.55-7.13-1.66Z"/>
      <path class="cls-1" d="m34.61,25.96c1.48.19,2.44-.39,2.6-1.59.17-1.23-.5-1.94-1.99-2.31-.63-.15-1.2-.52-1.8-.78-.42-.22-.35-.47.11-.52.68-.08,1.36-.19,2.05-.24,1.02-.09,2.06-.02,3.05-.23,1.97-.41,3.39-1.92,3.65-3.68.27-1.78-.62-3.59-2.46-4.54-.96-.5-2.09-.67-3.14-1.01-.97-.31-1.92-.7-2.89-1.02,0-.13,0-.11.02-.24,1.01-.14,2.02-.2,3.03-.34,1.34-.18,2.78-.12,3.99-.62,3.11-1.28,3.64-5.06,1.05-7.19-.89-.73-2.06-1.18-3.18-1.51-1.52-.45-2.68.23-2.92,1.45-.24,1.22.47,1.98,2.06,2.39.62.16,1.99.49,2.16.83.07.19.19.38-.51.52-.74.06-1.47.09-2.21.18-2.14.27-4.55-.03-5.8,2.41-.36.71-.5,1.53-.47,2.33.15,3.71,2.86,3.88,5.08,4.68,1.23.45,2.52.76,3.73,1.26.25.1.21.35-.07.29-1.42-.13-2.86.1-4.29.03-3.16-.14-5.76,1.68-5.97,4.22-.21,2.57,1.99,4.82,5.12,5.23Z"/>
      <path class="cls-1" d="m68.3,54.8c-1.51-.83-3.1-.75-4.74-.42-.82.17-1.68.16-2.52.23-.58.04-.77-.22-.2-.62.66-.36,1.32-.72,1.98-1.09,1.17-.67,2.53-1.16,3.46-2.08,2.39-2.38,1.45-6.08-1.79-7.03-1.21-.35-2.61-.23-3.9-.08-1.29.15-1.94,1.17-1.75,2.25.21,1.18,1.11,1.72,2.5,1.58.72-.07,1.46-.01,2.19-.01.55,0,.5.32.18.48-.65.36-1.3.72-1.95,1.08-1.17.67-2.53,1.15-3.46,2.07-2.44,2.41-1.46,6.21,1.85,7.07,1.34.35,2.85.02,4.28,0,.71,0,1.42,0,2.13,0,.69-.01.45.15.12.44-.46.31-.9.68-1.4.93-.53.26-1.13.39-1.68.62-2.7,1.16-4.14,3.58-3.48,5.83.7,2.38,3.33,3.69,6.26,3.11.17-.03.34-.07.5-.1.08-.02.17-.03.25-.06,1.16-.34,1.74-1.2,1.57-2.29-.17-1.05-1.06-1.65-2.27-1.56-.8.06-1.6.08-2.4.13-1.08.11-1.15-.3-.16-.69.7-.34,1.42-.64,2.09-1.03,1.2-.71,2.56-1.28,3.49-2.25,1.97-2.05,1.32-5.14-1.17-6.51Z"/>
      <path class="cls-1" d="m5.97,11.01c1.11-.04,1.86-.88,1.93-2.14.04-.68,0-1.38.15-2.04.2-.91.4-1.9,1.65-1.97,1.24-.08,1.84.72,2.05,1.73.3,1.5.56,3.03.54,4.55-.05,5.55-1.25,10.93-2.76,16.25-.41,1.45.04,2.44,1.21,2.82,1.12.37,2.15-.26,2.56-1.66,1.6-5.56,2.83-11.18,2.98-16.99.02-3.11-.47-4.95-1.26-7.26-.75-2.19-2.64-3.32-4.98-3.42-2.07-.09-3.77.7-4.85,2.53-1.02,1.71-1.34,3.59-1.23,5.55.07,1.25.95,2.09,2.01,2.05Z"/>
      <path class="cls-1" d="m43.63,37.67c.67.92,1.75,1.09,2.83.35,6.65-4.57,13.94-6.46,21.97-5.46,1.28.16,2.33-.79,2.32-1.99-.01-1.01-.74-1.86-2.01-1.92-2.64-.13-5.3-.32-7.92-.09-6.07.53-11.61,2.67-16.59,6.21-1.08.77-1.29,1.97-.61,2.9Z"/>
      <path class="cls-1" d="m3.87,38.16c2.11.04,3.96-1.73,4.02-3.84.06-2.12-1.69-3.96-3.82-4.02-2.17-.06-3.97,1.6-4.07,3.75-.1,2.18,1.68,4.05,3.87,4.1Z"/>
      <path class="cls-1" d="m54.93,10.61c2.22.05,4.03-1.71,4.02-3.9-.01-2.18-1.71-3.87-3.91-3.89-2.16-.02-3.92,1.68-3.97,3.84-.05,2.14,1.67,3.91,3.85,3.96Z"/>
      <path class="cls-1" d="m50.13,20.49c1.55.01,2.93-1.37,2.93-2.95,0-1.62-1.28-2.91-2.91-2.92-1.67-.01-2.94,1.2-2.98,2.84-.04,1.67,1.28,3.02,2.95,3.04Z"/>
      <path class="cls-1" d="m46.1,57.8c-1.62.05-2.86,1.36-2.84,3,.03,1.65,1.3,2.9,2.94,2.88,1.62-.01,2.92-1.31,2.94-2.92.01-1.62-1.41-3.01-3.04-2.97Z"/>
      <path class="cls-1" d="m55.04,23.45c.02,1.6,1.35,2.94,2.93,2.93,1.64,0,2.97-1.39,2.93-3.06-.03-1.61-1.37-2.86-3-2.83-1.64.03-2.88,1.32-2.87,2.96Z"/>
      <path class="cls-1" d="m60.95,37.18c.02,1.67,1.25,2.91,2.9,2.91,1.64,0,2.94-1.25,2.97-2.87.03-1.62-1.36-3.02-3-3.01-1.58.02-2.89,1.36-2.87,2.97Z"/>
      <path class="cls-1" d="m63.88,18.5c1.61-.02,2.93-1.34,2.93-2.94,0-1.65-1.4-3-3.04-2.95-1.61.05-2.89,1.39-2.86,3,.03,1.61,1.36,2.91,2.96,2.89Z"/>
    </g>
  </g>
</svg>