<?xml version="1.0" encoding="UTF-8"?>
<svg id="Capa_2" data-name="Capa 2" xmlns="http://www.w3.org/2000/svg" xmlns:xlink="http://www.w3.org/1999/xlink" viewBox="0 0 97.27 97.26">
  <defs>
    <style>
      .cls-1 {
        fill: url(#Degradado_sin_nombre_54-2);
      }

      .cls-2 {
        fill: url(#Degradado_sin_nombre_54-3);
      }

      .cls-3 {
        fill: url(#Degradado_sin_nombre_54);
      }
    </style>
    <linearGradient id="Degradado_sin_nombre_54" data-name="Degradado sin nombre 54" x1="48.63" y1=".57" x2="48.63" y2="102.7" gradientUnits="userSpaceOnUse">
      <stop offset=".02" stop-color="#941b80"/>
      <stop offset=".25" stop-color="#d80e57"/>
      <stop offset=".5" stop-color="#e61b72"/>
      <stop offset=".79" stop-color="#f8b133"/>
      <stop offset="1" stop-color="#f9ccb4"/>
    </linearGradient>
    <linearGradient id="Degradado_sin_nombre_54-2" data-name="Degradado sin nombre 54" y1=".57" y2="102.7" xlink:href="#Degradado_sin_nombre_54"/>
    <linearGradient id="Degradado_sin_nombre_54-3" data-name="Degradado sin nombre 54" y1=".57" y2="102.7" xlink:href="#Degradado_sin_nombre_54"/>
  </defs>
  <g id="Capa_1-2" data-name="Capa 1">
    <g>
      <path class="cls-3" d="m48.62,37.6c-6.1,0-10.99,4.89-11.02,10.99-.03,6.11,4.88,11.05,11.01,11.07,6.11.02,11.05-4.9,11.05-11.02,0-6.12-4.92-11.04-11.04-11.03Z"/>
      <path class="cls-1" d="m74.89,30.1c-1.49-4.79-6.14-8.43-11.87-8.4-9.59.06-19.19.02-28.78.01-2.06,0-4.04.36-5.85,1.34-4.07,2.22-6.46,5.62-6.61,10.28-.16,5.09-.04,10.19-.04,15.29h-.03c0,4.75,0,9.51,0,14.26,0,1.46.16,2.88.62,4.27,1.56,4.73,6.16,8.42,11.9,8.38,9.59-.06,19.19,0,28.78-.04,1.38,0,2.82-.21,4.14-.62,4.78-1.49,8.43-6.12,8.39-11.87-.06-9.59,0-19.19-.04-28.78,0-1.38-.21-2.82-.62-4.14Zm-26.3,35.41c-9.29-.02-16.85-7.61-16.84-16.9,0-9.31,7.62-16.9,16.93-16.87,9.28.02,16.85,7.61,16.84,16.9,0,9.31-7.62,16.9-16.93,16.87Zm17.64-30.18c-2.35,0-4.28-1.91-4.29-4.25,0-2.32,1.93-4.27,4.26-4.29,2.31-.01,4.28,1.94,4.29,4.27.01,2.33-1.92,4.26-4.27,4.27Z"/>
      <path class="cls-2" d="m48.9,0C21.86-.13.03,21.69,0,48.59c-.03,26.86,21.75,48.65,48.61,48.67,26.84.02,48.65-21.78,48.65-48.63C97.23,21.77,75.58.13,48.9,0Zm33.97,63.2c0,1.17-.09,2.35-.31,3.49-1.33,7.12-6.92,12.82-14.05,14.29-1.26.26-2.58.38-3.87.38-9.68.03-19.36.01-29.03.02-2.59,0-5.09-.46-7.44-1.55-5.39-2.49-8.86-6.62-10.3-12.41-.2-.8-.33-1.62-.49-2.43v-32.75c.05-.18.11-.36.13-.55.23-1.78.68-3.5,1.44-5.13,2.52-5.34,6.63-8.78,12.38-10.21.8-.2,1.61-.33,2.42-.49h32.75c.58.11,1.17.2,1.75.32,8.57,1.72,14.62,9.09,14.63,17.85.01,9.72.01,19.44-.01,29.16Z"/>
    </g>
  </g>
</svg>