<?xml version="1.0" encoding="UTF-8" standalone="no"?>
<svg
   xmlns:dc="http://purl.org/dc/elements/1.1/"
   xmlns:cc="http://creativecommons.org/ns#"
   xmlns:rdf="http://www.w3.org/1999/02/22-rdf-syntax-ns#"
   xmlns:svg="http://www.w3.org/2000/svg"
   xmlns="http://www.w3.org/2000/svg"
   xmlns:sodipodi="http://sodipodi.sourceforge.net/DTD/sodipodi-0.dtd"
   xmlns:inkscape="http://www.inkscape.org/namespaces/inkscape"
   version="1.1"
   id="svg2"
   xml:space="preserve"
   width="271.608"
   height="217.26401"
   viewBox="0 0 271.608 217.26401"
   sodipodi:docname="LOGO JAEwhite.svg"
   inkscape:version="1.0.2 (e86c870879, 2021-01-15, custom)"><metadata
     id="metadata8"><rdf:RDF><cc:Work
         rdf:about=""><dc:format>image/svg+xml</dc:format><dc:type
           rdf:resource="http://purl.org/dc/dcmitype/StillImage" /><dc:title></dc:title></cc:Work></rdf:RDF></metadata><defs
     id="defs6"><clipPath
       clipPathUnits="userSpaceOnUse"
       id="clipPath18"><path
         d="M 0,162.948 H 203.706 V 0 H 0 Z"
         id="path16" /></clipPath></defs><sodipodi:namedview
     pagecolor="#ffffff"
     bordercolor="#666666"
     borderopacity="1"
     objecttolerance="10"
     gridtolerance="10"
     guidetolerance="10"
     inkscape:pageopacity="0"
     inkscape:pageshadow="2"
     inkscape:window-width="1920"
     inkscape:window-height="1017"
     id="namedview4"
     showgrid="false"
     inkscape:zoom="3.8695473"
     inkscape:cx="135.804"
     inkscape:cy="87.957751"
     inkscape:window-x="-8"
     inkscape:window-y="-8"
     inkscape:window-maximized="1"
     inkscape:current-layer="g10" /><g
     id="g10"
     inkscape:groupmode="layer"
     inkscape:label="LOGO JAE"
     transform="matrix(1.3333333,0,0,-1.3333333,0,217.264)"><g
       id="g150"
       transform="translate(10.8922,73.3361)"><path
         d="m 0,0 c -1.4,0 -2.685,0.34 -3.861,1.023 -1.175,0.68 -2.258,1.703 -3.248,3.066 l -3.783,-4.549 c 1.227,-1.671 2.803,-2.95 4.73,-3.836 1.926,-0.885 4.029,-1.328 6.314,-1.328 3.919,0 6.91,1.038 8.973,3.118 2.063,2.079 3.093,5.232 3.093,9.458 V 30.675 H -7.159 V 25.103 H 5.571 V 6.594 C 5.571,2.198 3.714,0 0,0"
         style="fill:#3c3c3b;fill-opacity:1;fill-rule:nonzero;stroke:none"
         id="path152" /></g><g
       id="g154"
       transform="translate(40.2429,76.2193)"><path
         d="m 0,0 c 0,-1.09 -0.19,-2.004 -0.57,-2.744 -0.381,-0.74 -0.904,-1.295 -1.572,-1.665 -0.668,-0.369 -1.455,-0.554 -2.359,-0.554 -1.233,0 -2.184,0.364 -2.852,1.094 -0.668,0.729 -1.001,1.834 -1.001,3.314 v 8.878 h -3.854 v -9.402 c 0,-1.645 0.297,-3.006 0.894,-4.085 0.596,-1.079 1.428,-1.88 2.497,-2.405 1.069,-0.523 2.302,-0.785 3.7,-0.785 1.274,0 2.445,0.282 3.515,0.847 0.73,0.387 1.297,0.936 1.788,1.559 V -8.139 H 3.854 V 8.323 H 0 Z"
         style="fill:#3c3c3b;fill-opacity:1;fill-rule:nonzero;stroke:none"
         id="path156" /></g><g
       id="g158"
       transform="translate(60.4147,73.2294)"><path
         d="M 0,0 C -0.33,-0.844 -0.869,-1.48 -1.619,-1.912 -2.37,-2.343 -3.217,-2.56 -4.163,-2.56 c -0.986,0 -1.756,0.206 -2.311,0.617 -0.555,0.411 -0.832,0.966 -0.832,1.665 0,0.616 0.226,1.135 0.678,1.557 0.451,0.42 1.335,0.631 2.651,0.631 H 0 Z m -3.638,11.498 c -1.316,0 -2.584,-0.169 -3.807,-0.508 -1.223,-0.339 -2.277,-0.849 -3.16,-1.526 l 1.511,-2.806 c 0.616,0.513 1.372,0.914 2.266,1.202 0.894,0.288 1.803,0.432 2.728,0.432 1.376,0 2.404,-0.313 3.083,-0.94 C -0.339,6.725 0,5.846 0,4.716 V 4.469 h -4.254 c -1.665,0 -3.001,-0.216 -4.008,-0.647 -1.007,-0.431 -1.732,-1.017 -2.174,-1.758 -0.442,-0.739 -0.662,-1.571 -0.662,-2.496 0,-0.946 0.252,-1.793 0.755,-2.544 0.504,-0.75 1.217,-1.336 2.143,-1.757 0.924,-0.421 2.004,-0.631 3.237,-0.631 1.458,0 2.666,0.266 3.621,0.8 0.69,0.386 1.173,0.924 1.558,1.534 v -2.119 h 3.637 v 9.65 c 0,2.383 -0.653,4.146 -1.957,5.286 -1.306,1.141 -3.15,1.711 -5.534,1.711"
         style="fill:#3c3c3b;fill-opacity:1;fill-rule:nonzero;stroke:none"
         id="path160" /></g><g
       id="g162"
       transform="translate(87.3675,50.2713)"><path
         d="m 0,0 c -0.663,0.348 -1.389,0.623 -2.175,0.825 -0.787,0.203 -1.578,0.354 -2.377,0.455 -0.798,0.102 -1.523,0.231 -2.175,0.389 -0.651,0.157 -1.179,0.371 -1.584,0.64 -0.405,0.27 -0.607,0.674 -0.607,1.214 0,0.584 0.308,1.067 0.927,1.449 0.618,0.383 1.568,0.574 2.849,0.574 0.854,0 1.714,-0.096 2.579,-0.287 0.866,-0.191 1.725,-0.546 2.581,-1.062 l 1.617,3.204 c -0.809,0.493 -1.832,0.876 -3.068,1.146 -1.237,0.269 -2.461,0.404 -3.674,0.404 -1.62,0 -3.018,-0.231 -4.199,-0.691 -1.18,-0.461 -2.096,-1.113 -2.747,-1.955 -0.653,-0.843 -0.978,-1.838 -0.978,-2.985 0,-1.034 0.201,-1.865 0.607,-2.495 0.404,-0.629 0.932,-1.128 1.585,-1.499 0.651,-0.371 1.377,-0.653 2.174,-0.844 0.797,-0.192 1.595,-0.343 2.393,-0.456 0.799,-0.112 1.523,-0.235 2.175,-0.369 0.652,-0.135 1.181,-0.333 1.585,-0.591 0.404,-0.258 0.607,-0.636 0.607,-1.129 0,-0.607 -0.298,-1.092 -0.894,-1.45 -0.595,-0.361 -1.556,-0.54 -2.882,-0.54 -1.125,0 -2.248,0.169 -3.372,0.506 -1.124,0.338 -2.09,0.763 -2.9,1.281 l -1.617,-3.202 c 0.808,-0.563 1.904,-1.041 3.286,-1.433 1.382,-0.394 2.827,-0.591 4.334,-0.591 1.685,0 3.135,0.231 4.348,0.691 1.214,0.46 2.153,1.107 2.816,1.939 0.662,0.832 0.995,1.81 0.995,2.934 0,1.011 -0.203,1.831 -0.608,2.461 C 1.197,-0.839 0.663,-0.349 0,0"
         style="fill:#3c3c3b;fill-opacity:1;fill-rule:nonzero;stroke:none"
         id="path164" /></g><g
       id="g166"
       transform="translate(107.3453,47.0164)"><path
         d="m 0,0 c -0.472,-0.854 -1.108,-1.506 -1.905,-1.954 -0.798,-0.45 -1.703,-0.675 -2.714,-0.675 -1.012,0 -1.922,0.225 -2.731,0.675 -0.809,0.448 -1.451,1.1 -1.922,1.954 -0.472,0.854 -0.708,1.855 -0.708,3.001 0,1.169 0.236,2.175 0.708,3.018 0.471,0.843 1.113,1.489 1.922,1.939 0.809,0.449 1.719,0.674 2.731,0.674 1.011,0 1.916,-0.225 2.714,-0.674 C -1.108,7.508 -0.472,6.862 0,6.019 0.472,5.176 0.708,4.17 0.708,3.001 0.708,1.855 0.472,0.854 0,0 m 0.556,11.06 c -1.361,0.764 -2.927,1.146 -4.703,1.146 -1.529,0 -2.889,-0.331 -4.08,-0.994 -0.728,-0.405 -1.349,-0.954 -1.888,-1.614 v 2.405 h -4.012 v -24.546 h 4.215 v 8.773 c 0.516,-0.588 1.1,-1.081 1.769,-1.456 1.202,-0.674 2.535,-1.011 3.996,-1.011 1.776,0 3.342,0.381 4.703,1.146 1.36,0.764 2.439,1.837 3.237,3.221 0.798,1.382 1.197,3.006 1.197,4.871 0,1.865 -0.399,3.484 -1.197,4.855 -0.798,1.372 -1.877,2.439 -3.237,3.204"
         style="fill:#3c3c3b;fill-opacity:1;fill-rule:nonzero;stroke:none"
         id="path168" /></g><g
       id="g170"
       transform="translate(140.1681,58.3798)"><path
         d="m 0,0 c -1.136,0.561 -2.422,0.843 -3.86,0.843 -1.575,0 -2.963,-0.31 -4.166,-0.927 -0.835,-0.43 -1.481,-1.034 -2.039,-1.718 V 0.64 h -4.013 v -18.004 h 4.215 v 9.104 c 0,1.214 0.208,2.218 0.624,3.016 0.415,0.798 1.006,1.4 1.771,1.804 0.763,0.406 1.64,0.607 2.63,0.607 1.349,0 2.398,-0.393 3.151,-1.179 0.754,-0.788 1.13,-1.979 1.13,-3.575 v -9.777 h 4.215 v 10.318 c 0,1.82 -0.327,3.308 -0.978,4.467 C 2.028,-1.422 1.135,-0.562 0,0"
         style="fill:#3c3c3b;fill-opacity:1;fill-rule:nonzero;stroke:none"
         id="path172" /></g><g
       id="g174"
       transform="translate(161.982,47.0164)"><path
         d="m 0,0 c -0.46,-0.854 -1.095,-1.506 -1.905,-1.954 -0.809,-0.45 -1.731,-0.675 -2.765,-0.675 -1.011,0 -1.916,0.225 -2.713,0.675 -0.798,0.448 -1.433,1.1 -1.906,1.954 -0.472,0.854 -0.708,1.855 -0.708,3.001 0,1.169 0.236,2.175 0.708,3.018 0.473,0.843 1.108,1.489 1.906,1.939 0.797,0.449 1.714,0.674 2.747,0.674 1.011,0 1.922,-0.225 2.731,-0.674 C -1.095,7.508 -0.46,6.862 0,6.019 0.46,5.176 0.691,4.17 0.691,3.001 0.691,1.855 0.46,0.854 0,0 m 0.304,11.025 c -1.45,0.787 -3.108,1.181 -4.974,1.181 -1.842,0 -3.484,-0.394 -4.922,-1.181 -1.438,-0.786 -2.574,-1.87 -3.406,-3.253 -0.831,-1.382 -1.247,-2.972 -1.247,-4.771 0,-1.776 0.416,-3.36 1.247,-4.754 0.832,-1.393 1.968,-2.49 3.406,-3.287 1.438,-0.798 3.08,-1.197 4.922,-1.197 1.866,0 3.524,0.399 4.974,1.197 1.45,0.797 2.585,1.894 3.405,3.287 0.821,1.394 1.231,2.978 1.231,4.754 0,1.821 -0.41,3.417 -1.231,4.789 -0.82,1.37 -1.955,2.449 -3.405,3.235"
         style="fill:#3c3c3b;fill-opacity:1;fill-rule:nonzero;stroke:none"
         id="path176" /></g><g
       id="g178"
       transform="translate(184.4538,56.3564)"><path
         d="m 0,0 v 2.663 h -15.038 v -3.371 h 9.694 l -9.895,-11.97 v -2.663 H 0.303 v 3.372 H -9.893 Z"
         style="fill:#3c3c3b;fill-opacity:1;fill-rule:nonzero;stroke:none"
         id="path180" /></g><g
       id="g182"
       transform="translate(199.4926,46.6467)"><path
         d="M 0,0 C -0.361,-0.923 -0.95,-1.619 -1.771,-2.091 -2.592,-2.563 -3.519,-2.8 -4.553,-2.8 c -1.078,0 -1.921,0.226 -2.528,0.675 -0.607,0.45 -0.91,1.057 -0.91,1.822 0,0.673 0.247,1.24 0.742,1.702 0.493,0.46 1.46,0.691 2.899,0.691 H 0 Z m 2.073,10.704 c -1.428,1.248 -3.445,1.872 -6.052,1.872 -1.439,0 -2.826,-0.185 -4.164,-0.556 -1.337,-0.371 -2.49,-0.928 -3.456,-1.669 l 1.652,-3.069 c 0.675,0.561 1.501,1 2.479,1.315 0.977,0.315 1.972,0.473 2.983,0.473 1.506,0 2.63,-0.343 3.372,-1.029 C -0.371,7.355 0,6.394 0,5.158 v -0.27 h -4.653 c -1.821,0 -3.282,-0.236 -4.383,-0.708 -1.102,-0.471 -1.895,-1.112 -2.378,-1.922 -0.484,-0.808 -0.725,-1.719 -0.725,-2.731 0,-1.034 0.276,-1.961 0.827,-2.782 0.55,-0.82 1.331,-1.461 2.343,-1.921 1.011,-0.46 2.191,-0.691 3.541,-0.691 1.594,0 2.915,0.292 3.961,0.876 0.725,0.406 1.286,0.933 1.703,1.566 V -5.631 H 4.214 V 4.922 c 0,2.608 -0.714,4.535 -2.141,5.782"
         style="fill:#3c3c3b;fill-opacity:1;fill-rule:nonzero;stroke:none"
         id="path184" /></g><g
       id="g186"
       transform="translate(73.8364,76.4048)"><path
         d="m 0,0 c 0,1.11 0.189,2.028 0.57,2.758 0.38,0.73 0.92,1.28 1.618,1.649 0.7,0.371 1.5,0.555 2.405,0.555 1.233,0 2.193,-0.359 2.883,-1.078 C 8.163,3.163 8.508,2.075 8.508,0.615 v -8.939 h 3.854 V 1.11 c 0,1.664 -0.298,3.025 -0.894,4.084 C 10.871,6.252 10.054,7.038 9.016,7.552 7.979,8.065 6.802,8.323 5.487,8.323 4.048,8.323 2.779,8.04 1.68,7.475 0.916,7.083 0.326,6.53 -0.185,5.905 V 8.137 H -3.854 V -8.324 H 0 Z"
         style="fill:#3c3c3b;fill-opacity:1;fill-rule:nonzero;stroke:none"
         id="path188" /></g><g
       id="g190"
       transform="translate(116.3478,57.0667)"><path
         d="M 0,0 V -16.051 H 4.215 V -0.004 C 3.542,-0.165 2.846,-0.276 2.107,-0.276 1.371,-0.276 0.675,-0.163 0,0"
         style="fill:#3c3c3b;fill-opacity:1;fill-rule:nonzero;stroke:none"
         id="path192" /></g><g
       id="g194"
       transform="translate(37.9212,28.0013)"><path
         d="M 0,0 C 0.945,0 1.871,0.073 2.798,0.141 V 34.732 H -37.723 C -36.119,15.288 -19.859,0 0,0"
         style="fill:#3c3c3b;fill-opacity:1;fill-rule:nonzero;stroke:none"
         id="path196" /></g><g
       id="g198"
       transform="translate(132.249,118.739)"><path
         d="M 0,0 C 0.754,11.3 10.622,19.92 21.973,19.195 33.281,18.472 41.934,8.604 41.195,-2.729 40.456,-14.059 30.627,-22.655 19.248,-21.923 7.927,-21.194 -0.755,-11.306 0,0 M 18.91,-28.586 C 33.92,-29.522 46.892,-18.125 47.869,-3.142 48.849,11.866 37.36,24.91 22.313,25.874 7.385,26.831 -5.73,15.305 -6.662,0.408 -7.603,-14.648 3.861,-27.647 18.91,-28.586"
         style="fill:#3c3c3b;fill-opacity:1;fill-rule:nonzero;stroke:none"
         id="path200" /></g><g
       id="g202"
       transform="translate(152.7818,104.272)"><path
         d="m 0,0 c 6.805,-0.012 12.387,4.931 13.15,11.644 0.251,2.203 -0.894,3.875 -2.839,4.144 -1.878,0.26 -3.375,-1 -3.74,-3.149 C 5.916,8.79 3.722,6.841 -0.207,6.622 -2.516,6.493 -3.929,5.169 -3.849,3.209 -3.769,1.227 -2.301,0.004 0,0"
         style="fill:#3c3c3b;fill-opacity:1;fill-rule:nonzero;stroke:none"
         id="path204" /></g><g
       id="g206"
       transform="translate(51.3954,41.7414)"><path
         d="M 0,0 H 14.955 V 4.735 H 0 v 8.052 h 16.857 v 4.821 H -5.752 v -30.97 h 23.23 v 4.823 L 0,-8.539 Z"
         style="fill:#3c3c3b;fill-opacity:1;fill-rule:nonzero;stroke:none"
         id="path208" /></g><path
       d="m 73.797,28.379 h 129.909 v 4.823 H 73.797 Z"
       style="fill:#3c3c3b;fill-opacity:1;fill-rule:nonzero;stroke:none"
       id="path210" /><g
       id="g212"
       transform="translate(142.7986,68.507)"><path
         d="m 0,0 c 0.731,-0.692 1.764,-1.038 3.103,-1.038 0.517,0 1.019,0.068 1.506,0.206 0.487,0.137 0.898,0.342 1.232,0.615 L 5.042,1.814 C 4.616,1.479 4.084,1.312 3.445,1.312 2.912,1.312 2.498,1.472 2.201,1.791 1.906,2.11 1.757,2.559 1.757,3.138 V 8.932 H 5.02 v 2.282 H 1.757 v 2.783 H -1.095 V 11.214 H -3.102 V 8.932 h 2.007 V 3.068 C -1.095,1.715 -0.73,0.692 0,0"
         style="fill:#3c3c3b;fill-opacity:1;fill-rule:nonzero;stroke:none"
         id="path214" /></g><g
       id="g216"
       transform="translate(159.2135,71.6894)"><path
         d="m 0,0 c -0.311,-0.578 -0.741,-1.019 -1.289,-1.322 -0.547,-0.305 -1.171,-0.457 -1.871,-0.457 -0.684,0 -1.297,0.152 -1.836,0.457 -0.54,0.303 -0.969,0.744 -1.289,1.322 -0.32,0.578 -0.479,1.255 -0.479,2.031 0,0.791 0.159,1.472 0.479,2.042 0.32,0.57 0.749,1.007 1.289,1.312 0.539,0.304 1.16,0.456 1.859,0.456 0.685,0 1.301,-0.152 1.848,-0.456 C -0.741,5.08 -0.311,4.643 0,4.073 0.311,3.503 0.468,2.822 0.468,2.031 0.468,1.255 0.311,0.578 0,0 M 0.205,7.46 C -0.775,7.993 -1.897,8.259 -3.16,8.259 -4.406,8.259 -5.517,7.993 -6.491,7.46 -7.464,6.928 -8.232,6.195 -8.795,5.259 -9.357,4.324 -9.638,3.248 -9.638,2.031 c 0,-1.202 0.281,-2.274 0.843,-3.217 0.563,-0.943 1.331,-1.685 2.304,-2.224 0.974,-0.54 2.085,-0.81 3.331,-0.81 1.263,0 2.385,0.27 3.365,0.81 0.982,0.539 1.75,1.281 2.304,2.224 0.556,0.943 0.834,2.015 0.834,3.217 0,1.232 -0.278,2.312 -0.834,3.24 C 1.955,6.198 1.187,6.928 0.205,7.46"
         style="fill:#3c3c3b;fill-opacity:1;fill-rule:nonzero;stroke:none"
         id="path218" /></g><g
       id="g220"
       transform="translate(177.2943,67.6288)"><path
         d="m 0,0 v 6.982 c 0,1.232 -0.221,2.238 -0.662,3.023 -0.44,0.783 -1.045,1.364 -1.813,1.745 -0.769,0.379 -1.639,0.57 -2.612,0.57 -1.065,0 -2.005,-0.21 -2.818,-0.627 -0.566,-0.291 -1.003,-0.7 -1.381,-1.163 v 1.653 h -2.715 V 0 h 2.852 v 6.16 c 0,0.822 0.141,1.501 0.422,2.041 0.281,0.54 0.681,0.948 1.199,1.221 0.516,0.274 1.11,0.411 1.779,0.411 0.913,0 1.623,-0.266 2.133,-0.798 0.51,-0.533 0.764,-1.339 0.764,-2.419 V 0 Z"
         style="fill:#3c3c3b;fill-opacity:1;fill-rule:nonzero;stroke:none"
         id="path222" /></g><g
       id="g224"
       transform="translate(182.3591,81.8198)"><path
         d="M 0,0 C 0.548,0 0.989,0.171 1.323,0.513 1.657,0.855 1.825,1.278 1.825,1.779 1.825,2.251 1.654,2.642 1.312,2.954 0.97,3.266 0.532,3.422 0,3.422 c -0.532,0 -0.97,-0.164 -1.312,-0.491 -0.342,-0.327 -0.513,-0.734 -0.513,-1.22 0,-0.472 0.171,-0.875 0.513,-1.21 C -0.97,0.167 -0.532,0 0,0"
         style="fill:#3c3c3b;fill-opacity:1;fill-rule:nonzero;stroke:none"
         id="path226" /></g><path
       d="m 180.922,67.629 h 2.852 v 12.183 h -2.852 z"
       style="fill:#3c3c3b;fill-opacity:1;fill-rule:nonzero;stroke:none"
       id="path228" /><g
       id="g230"
       transform="translate(196.1498,71.6894)"><path
         d="m 0,0 c -0.311,-0.578 -0.741,-1.019 -1.289,-1.322 -0.548,-0.305 -1.171,-0.457 -1.871,-0.457 -0.684,0 -1.297,0.152 -1.836,0.457 -0.54,0.303 -0.969,0.744 -1.289,1.322 -0.32,0.578 -0.479,1.255 -0.479,2.031 0,0.791 0.159,1.472 0.479,2.042 0.32,0.57 0.749,1.007 1.289,1.312 0.539,0.304 1.16,0.456 1.859,0.456 0.684,0 1.3,-0.152 1.848,-0.456 C -0.741,5.08 -0.311,4.643 0,4.073 0.311,3.503 0.468,2.822 0.468,2.031 0.468,1.255 0.311,0.578 0,0 M 0.205,7.46 C -0.776,7.993 -1.897,8.259 -3.16,8.259 -4.406,8.259 -5.518,7.993 -6.491,7.46 -7.464,6.928 -8.233,6.195 -8.795,5.259 -9.357,4.324 -9.639,3.248 -9.639,2.031 c 0,-1.202 0.282,-2.274 0.844,-3.217 0.562,-0.943 1.331,-1.685 2.304,-2.224 0.973,-0.54 2.085,-0.81 3.331,-0.81 1.263,0 2.384,0.27 3.365,0.81 0.982,0.539 1.75,1.281 2.304,2.224 0.556,0.943 0.834,2.015 0.834,3.217 0,1.232 -0.278,2.312 -0.834,3.24 C 1.955,6.198 1.187,6.928 0.205,7.46"
         style="fill:#3c3c3b;fill-opacity:1;fill-rule:nonzero;stroke:none"
         id="path232" /></g><g
       id="g234"
       transform="translate(120.7322,62.7508)"><path
         d="m 0,0 c -0.563,-0.577 -1.308,-0.856 -2.278,-0.856 -0.944,0 -1.687,0.277 -2.268,0.844 -0.582,0.573 -0.856,1.211 -0.856,2.008 0,0.829 0.27,1.472 0.846,2.024 0.583,0.559 1.33,0.831 2.278,0.831 0.96,0 1.713,-0.26 2.299,-0.796 C 0.585,3.541 0.847,2.939 0.847,2.158 0.847,1.288 0.569,0.581 0,0 m -2.278,7.252 c -1.576,0 -2.901,-0.503 -3.939,-1.496 -1.052,-1.007 -1.586,-2.272 -1.586,-3.76 0,-1.445 0.53,-2.698 1.578,-3.726 1.038,-1.013 2.367,-1.527 3.947,-1.527 1.627,0 2.97,0.53 3.995,1.576 1.016,1.04 1.53,2.33 1.53,3.839 0,1.463 -0.539,2.699 -1.607,3.672 -1.036,0.945 -2.354,1.422 -3.918,1.422"
         style="fill:#3c3c3b;fill-opacity:1;fill-rule:nonzero;stroke:none"
         id="path236" /></g><g
       id="g238"
       transform="translate(107.0434,91.382)"><path
         d="M 0,0 5.474,-12.747 H -5.454 Z M -7.271,-16.991 H 7.297 l 0.963,-2.243 c 0.967,0.368 2.022,0.561 3.14,0.561 0.81,0 1.574,-0.13 2.311,-0.322 L 2.702,5.393 h -5.326 l -13.105,-29.124 h 5.574 z"
         style="fill:#3c3c3b;fill-opacity:1;fill-rule:nonzero;stroke:none"
         id="path240" /></g><g
       id="g242"
       transform="translate(137.688,67.6289)"><path
         d="m 0,0 v 6.982 c 0,1.231 -0.221,2.238 -0.661,3.022 -0.441,0.784 -1.046,1.365 -1.814,1.746 -0.769,0.379 -1.639,0.57 -2.612,0.57 -1.065,0 -2.005,-0.21 -2.818,-0.627 -0.565,-0.291 -1.003,-0.7 -1.381,-1.163 v 1.653 H -12 V 1.021 c 0.185,-0.33 0.352,-0.667 0.485,-1.021 h 2.367 v 6.16 c 0,0.822 0.14,1.501 0.421,2.041 0.282,0.54 0.681,0.948 1.199,1.221 0.516,0.274 1.11,0.411 1.779,0.411 0.913,0 1.623,-0.266 2.133,-0.798 0.51,-0.533 0.764,-1.339 0.764,-2.419 V 0 Z"
         style="fill:#3c3c3b;fill-opacity:1;fill-rule:nonzero;stroke:none"
         id="path244" /></g><g
       id="g246"
       transform="translate(187.0161,139.299)"><path
         d="M 0,0 C 2.238,-0.071 4.013,1.572 4.115,3.81 4.216,6.007 2.543,7.826 0.32,7.938 -1.865,8.049 -3.73,6.333 -3.809,4.139 -3.888,1.946 -2.16,0.068 0,0"
         style="fill:#3c3c3b;fill-opacity:1;fill-rule:nonzero;stroke:none"
         id="path248" /></g><g
       id="g250"
       transform="translate(103.1962,102.0479)"><path
         d="M 0,0 H 8.313 C 7.789,1.999 7.379,4.055 7.122,6.175 c -2.235,18.394 9.193,37.221 26.533,43.742 11.445,4.305 22.717,3.971 33.829,-1.179 2.445,-1.133 4.731,-0.455 5.765,1.688 1.045,2.165 0.133,4.383 -2.297,5.535 C 61.95,60.228 52.476,61.757 42.627,60.444 15.624,56.846 -3.429,32.774 -0.896,5.597 -0.719,3.697 -0.393,1.838 0,0"
         style="fill:#3c3c3b;fill-opacity:1;fill-rule:nonzero;stroke:none"
         id="path252" /></g><g
       id="g254"
       transform="translate(189.895,92.8875)"><path
         d="m 0,0 c -0.965,-1.874 -2.092,-3.638 -3.323,-5.314 l 0.782,-0.219 7.257,-2.035 c 4.61,7.11 7.534,15.515 8.138,24.712 0.332,5.824 -0.42,12.106 -2.443,18.229 C 9.498,38.138 7.577,39.39 5.247,38.683 2.821,37.946 1.906,35.778 2.791,32.952 6.351,21.589 5.456,10.597 0,0"
         style="fill:#3c3c3b;fill-opacity:1;fill-rule:nonzero;stroke:none"
         id="path256" /></g></g></svg>
