<?xml version="1.0" encoding="UTF-8"?>
<svg id="Capa_2" data-name="Capa 2" xmlns="http://www.w3.org/2000/svg" viewBox="0 0 118.82 62.46">
  <defs>
    <style>
      .cls-1 {
        fill: #3c3c3b;
      }
    </style>
  </defs>
  <g id="Capa_1-2" data-name="Capa 1">
    <g>
      <path class="cls-1" d="m118.72,34.38c-.03-.26-.05-.52-.27-.71-.05-.04-.06-.13-.08-.2-.15-.54-.26-1.08-.44-1.61-.24-.72-.61-1.37-1.08-1.97-.25-.32-.38-.72-.63-1.05-.38-.5-.8-.98-1.22-1.44-.54-.59-1.1-1.15-1.67-1.71-.11-.11-.29-.17-.41-.28-.2-.18-.38-.39-.58-.58-.56-.53-1.32-.79-1.86-1.37-.32-.34-.81-.51-1.22-.76-.25-.15-.52-.29-.76-.46-.27-.18-.51-.42-.8-.58-.44-.24-.9-.43-1.34-.66-.29-.16-.54-.39-.84-.53-.63-.31-1.29-.57-1.93-.87-.48-.23-.94-.5-1.42-.73-.99-.46-2.06-.7-3.03-1.22-.74-.39-1.6-.58-2.44-.88-.02.17-.03.28-.04.4,0,1.23,0,2.45,0,3.68,0,.26.08.43.32.56,1.19.64,2.26,1.43,3.23,2.36.79.75,1.57,1.52,2.07,2.51.55,1.08.82,2.23.69,3.44-.04.45-.11.91-.26,1.33-.21.6-.47,1.19-.77,1.75-.13.26-.46.42-.59.68-.43.84-1.23,1.33-1.88,1.94-.69.65-1.54,1.14-2.36,1.65-.8.5-1.63.98-2.48,1.4-.67.33-1.4.55-2.09.84-.31.13-.59.36-.91.47-.88.3-1.77.56-2.65.86-.4.14-.77.37-1.17.48-1.05.28-2.11.51-3.16.78-.72.18-1.42.44-2.14.59-1.03.23-2.07.42-3.12.59-1.52.24-3.05.45-4.57.68-.26.04-.5.21-.76.24-1.19.13-2.38.25-3.58.34-1.77.13-3.54.24-5.31.33-.98.05-1.97.06-2.96.07-2.72.02-5.43.03-8.15.04-.14,0-.29-.04-.43-.07-.14-.04-.27-.13-.4-.13-1.77-.08-3.55-.14-5.32-.23-.84-.05-1.69-.11-2.52-.27-.36-.07-.7-.17-1.13-.08.19-.25.01-.21-.09-.23-.42-.05-.85-.1-1.27-.16-1.25-.18-2.5-.37-3.74-.56-.78-.12-1.56-.23-2.33-.38-.42-.09-.82-.3-1.25-.4-1.28-.31-2.57-.6-3.85-.9-.46-.11-.88-.28-1.31-.49-.57-.27-1.21-.4-1.82-.6-.63-.21-1.27-.42-1.89-.66-.31-.12-.6-.31-.91-.45-.52-.23-1.05-.42-1.56-.66-.38-.18-.73-.43-1.1-.63-.6-.33-1.22-.62-1.81-.96-.22-.12-.37-.36-.59-.49-1.02-.61-1.89-1.4-2.68-2.28-.38-.43-.8-.84-1.09-1.33-.57-.95-.92-1.99-1-3.12-.08-1.31.25-2.5.9-3.59.66-1.12,1.55-2.07,2.59-2.86.87-.66,1.77-1.29,2.71-1.86.9-.55,1.86-1,2.8-1.49.18-.09.27-.21.27-.41,0-1.15.02-2.3.03-3.45,0-.18-.06-.24-.24-.17-.23.08-.46.14-.69.22-.51.19-1.01.4-1.52.58-.33.12-.68.19-1.01.31-.8.29-1.62.5-2.36.93-.45.26-1,.35-1.49.54-.62.24-1.21.52-1.79.84-1.04.57-2.22.85-3.22,1.54-.6.41-1.3.67-1.95,1.01-.21.11-.4.23-.59.36-.18.13-.34.3-.53.42-.45.29-.96.51-1.37.85-.26.22-.51.45-.82.6,0,0-.01.01-.02.02-.44.3-.86.63-1.24,1.01-.56.56-1.23,1-1.8,1.56-.59.58-1.13,1.23-1.66,1.87-.44.53-.76,1.15-1.18,1.71-.44.59-.78,1.28-.91,2.04-.04.22-.21.42-.32.62-.02.04-.07.08-.07.12.03.27-.12.5-.18.74-.32,1.39-.46,2.8-.18,4.22.13.64.27,1.29.4,1.93.01.05.06.09.1.13.03-.01.06-.02.09-.04.11.35.18.7.33,1.03.3.68.63,1.34.95,2.01.01.03.07.07.08.06.18-.14.17.07.21.13.23.38.4.8.67,1.15.94,1.25,2,2.4,3.2,3.41.85.72,1.73,1.41,2.64,2.05,1.03.74,2.1,1.43,3.18,2.1.68.42,1.41.78,2.13,1.14.89.45,1.78.91,2.69,1.33.82.38,1.66.74,2.51,1.07.43.17.88.26,1.31.42.28.11.51.33.8.42,1.07.34,2.15.64,3.23.96.13.04.26.1.38.16.21.1.4.24.61.3.94.26,1.88.5,2.82.75.66.17,1.33.32,1.99.5.18.05.33.22.51.25,1.1.23,2.2.44,3.3.65.74.14,1.48.25,2.22.4.63.13,1.25.36,1.88.47,1.16.19,2.33.33,3.5.47,1.71.2,3.41.38,5.12.56.62.06,1.24.08,1.86.12.09,0,.17.05.26.08.1.04.19.11.29.12.77.06,1.54.13,2.3.17,1.59.07,3.18.16,4.77.16,3.11,0,6.21-.05,9.32-.11,1.31-.03,2.62-.15,3.92-.23.14,0,.34.01.4-.07.2-.26.47-.18.71-.19.41-.01.82.01,1.23,0,.22,0,.44-.03.66-.07.25-.04.5-.13.75-.16.45-.05.91-.05,1.36-.09.46-.05.92-.12,1.38-.18.2-.02.41,0,.61-.04,1.17-.18,2.35-.36,3.52-.55.49-.08.98-.17,1.47-.28.3-.07.58-.2.87-.26.79-.14,1.59-.22,2.36-.4,1.22-.29,2.47-.44,3.67-.89.98-.37,2.05-.51,3.07-.79.78-.21,1.53-.49,2.3-.74.79-.25,1.59-.47,2.36-.75,1.07-.38,2.14-.79,3.19-1.23,1.21-.51,2.4-1.04,3.58-1.6.88-.42,1.73-.89,2.59-1.34.45-.24.91-.46,1.35-.73.9-.56,1.79-1.13,2.66-1.74,1.88-1.3,3.6-2.78,5.11-4.5.95-1.09,1.81-2.24,2.46-3.54.46-.94.77-1.94.98-2.97.02-.08.07-.16.11-.24.06-.12.16-.23.18-.35.22-1.36.19-2.72.06-4.08Z"/>
      <path class="cls-1" d="m72.5,20.15c.18.32.22.66.32.99.24.78.47,1.56.73,2.33.14.42.45.77.64,1.16.5.98,1.14,1.84,1.98,2.53.53.44,1.15.77,1.75,1.13.35.21.73.39,1.12.54.28.11.59.16.89.22,1.76.36,3.51.34,5.24-.16.63-.19,1.23-.52,1.82-.81,1.19-.58,2.11-1.47,2.84-2.56.3-.45.54-.93.8-1.4.22-.41.48-.82.64-1.25.28-.75.58-1.49.61-2.32.01-.44.28-.85.37-1.27.16-.82.21-1.66.25-2.49.03-.7,0-1.41-.02-2.11,0-.65.02-1.3-.04-1.94-.06-.59.09-1.23-.36-1.75-.03-.03-.03-.09-.03-.13-.08-.45-.13-.9-.24-1.34-.19-.76-.41-1.52-.64-2.27-.1-.33-.25-.64-.41-.94-.18-.33-.39-.65-.6-.96-.25-.38-.49-.76-.77-1.12-.2-.25-.45-.46-.68-.69-.28-.28-.55-.57-.85-.82-.16-.14-.37-.21-.56-.31-.42-.24-.82-.53-1.26-.72-.82-.36-1.68-.58-2.59-.61-.31,0-.62.08-.92.03-.85-.13-1.67,0-2.49.16-.49.1-.97.26-1.43.45-.38.16-.73.43-1.09.63-.59.33-1.19.66-1.58,1.24-.09.14-.24.23-.35.35-.2.21-.43.39-.59.62-.42.63-.86,1.25-1.19,1.93-.32.65-.58,1.35-.77,2.05-.23.85-.37,1.72-.56,2.58-.06.26-.23.49-.25.75-.1,1.11-.17,2.22-.26,3.43.11,1.2.21,2.49.34,3.78.04.36.04.77.21,1.07Zm5.92-8.04c.06-.71.12-1.42.21-2.13.04-.35.08-.75.27-1.01.5-.65.6-1.5,1.15-2.12,1.06-1.2,2.58-1.24,3.57-.55.61.43,1.1,1.03,1.36,1.76.16.44.27.91.42,1.35.07.2.19.39.29.58.03.06.06.12.06.18.05.71.08,1.42.14,2.13.01.16.1.31.15.47.03.1.06.2.06.3-.02,1.63,0,3.27-.08,4.9-.05,1.02-.2,2.05-.44,3.04-.17.72-.57,1.39-.87,2.07-.07.16-.16.32-.26.46-.45.66-1.1.98-1.86,1.09-.79.11-1.51-.1-2.17-.55-.13-.09-.25-.2-.32-.33-.3-.53-.56-1.08-.89-1.6-.16-.26-.36-.5-.41-.82-.12-.86-.28-1.72-.37-2.58-.12-1.1-.19-2.2-.28-3.28.09-1.13.17-2.24.27-3.35Z"/>
      <path class="cls-1" d="m49.01,21.46c.19.34.26.75.36,1.13.52,1.93,1.64,3.47,3.18,4.69,1.31,1.04,2.79,1.72,4.46,1.95.64.09,1.29.19,1.93.22.44.02.89-.06,1.33-.09,2.26-.13,4.2-1.05,5.89-2.51,1.16-1,1.94-2.26,2.38-3.73.03-.1.06-.22.13-.27.24-.17.28-.43.34-.68.09-.44.19-.89.25-1.34.15-1.25.1-2.5-.15-3.74-.06-.27-.15-.54-.24-.79-.06-.17-.19-.31-.25-.48-.53-1.52-1.34-2.83-2.84-3.59-.07-.04-.15-.09-.19-.15-.19-.32-.52-.44-.83-.58-1.03-.5-2.13-.62-3.25-.66-.16,0-.31-.11-.47-.13-.18-.03-.37-.05-.55-.03-.23.03-.45.16-.68.17-1.01.06-1.98.26-2.92.67-.54.24-.91.69-1.39.99-.13.08-.28.15-.41.23-.01-.19-.07-.38-.04-.56.1-.62.37-1.16.71-1.7.6-.95,1.31-1.77,2.2-2.45.77-.58,1.65-.91,2.51-1.31.88-.4,1.81-.5,2.73-.6.97-.1,1.95-.1,2.92-.12.21,0,.27-.08.27-.28,0-.69,0-1.37,0-2.06h0c0-.69,0-1.38,0-2.06,0-.25-.08-.31-.32-.32-1.45-.07-2.9.06-4.34.24-.41.05-.89-.02-1.22.35-.03.03-.09.02-.13.03-.98.28-1.96.56-2.94.83-.65.18-1.14.64-1.72.95-.49.27-.96.55-1.42.86-.28.19-.51.45-.77.68-.29.26-.6.49-.87.77-.22.22-.39.49-.58.74-.35.45-.74.88-1.06,1.35-.22.32-.37.7-.56,1.05-.16.29-.39.55-.5.86-.3.91-.55,1.83-.82,2.74-.03.11-.08.22-.13.33-.07.15-.19.28-.22.43-.08.41-.14.82-.2,1.24-.19,1.38-.2,2.76-.11,4.14.06.87.07,1.76.52,2.58Zm5.75-3.4c.12-.7.56-1.19,1.05-1.62.42-.37.92-.65,1.38-.96.85-.57,1.79-.43,2.72-.29.48.07.78.46,1.15.71.28.19.5.46.74.71.88.93,1.09,2.09,1.08,3.8-.04.52-.05,1.58-.59,2.43-.7,1.1-1.61,2.01-3.13,1.96-.91-.03-1.74-.25-2.52-.69-.23-.13-.39-.4-.57-.62-.12-.14-.19-.33-.33-.45-.44-.37-.62-.87-.74-1.4-.27-1.18-.47-2.36-.25-3.58Z"/>
      <path class="cls-1" d="m27.31,27.89c.56.33,1.29.28,1.77.8.02.02.07.03.1.04,1.65.4,3.31.78,5.02.75.32,0,.63.04.95.02.86-.05,1.73-.08,2.58-.19.76-.1,1.53-.24,2.25-.48.69-.22,1.33-.59,1.99-.9,1.22-.57,2.2-1.41,2.87-2.59.21-.37.52-.7.7-1.09.36-.79.49-1.65.55-2.51.13-1.77-.34-3.33-1.54-4.68-.85-.97-1.85-1.65-3.11-1.94-.11-.03-.21-.11-.32-.16-.12-.06-.23-.15-.36-.18-.18-.05-.37-.07-.55-.1,0-.04-.02-.07-.03-.11.23-.11.47-.22.7-.33.96-.41,1.89-.9,2.61-1.67.86-.92,1.5-1.96,1.51-3.28,0-.16,0-.35.07-.46.22-.3.15-.62.15-.93,0-.33.07-.69-.26-.95-.04-.03-.05-.12-.05-.18-.02-.57-.2-1.1-.5-1.58-.18-.29-.4-.56-.63-.8-.45-.47-.88-.97-1.39-1.38-.63-.51-1.42-.75-2.2-.98-.3-.09-.58-.28-.88-.36-2.17-.53-4.35-.43-6.53-.09-.33.05-.63.22-.96.31-.17.05-.35.05-.52.09-1.17.29-2.35.55-3.42,1.16-.18.1-.25.18-.19.38.25.74.49,1.49.73,2.24.17.53.33,1.06.48,1.59.11.37.11.39.46.23.75-.33,1.49-.68,2.26-.97.41-.16.86-.26,1.3-.29.91-.06,1.82-.07,2.73-.06.59,0,1.2.02,1.68.49.28.27.61.48.89.75.22.22.47.45.57.73.12.34.14.73.12,1.1-.02.59-.39,1.03-.75,1.45-.67.78-1.64,1.04-2.54,1.41-.15.06-.33.02-.49.06-.86.2-1.74.16-2.61.13-.18,0-.37-.02-.55-.07-.36-.1-.4-.08-.4.3,0,1.34.01,2.67.02,4.01,0,.05.02.11.03.17.05.01.06.03.08.03.06,0,.11,0,.17,0,1.32.09,2.66-.26,3.97.22.62.23,1.28.35,1.85.66.82.45,1.54,1.06,1.8,2.02.24.87.2,1.75-.13,2.6-.1.25-.27.49-.46.68-.2.21-.5.35-.68.57-.3.37-.72.47-1.13.6-1.13.34-2.29.42-3.45.28-1.37-.16-2.76-.27-3.98-1.04-.33-.2-.71-.32-1.07-.46-.34-.13-.34-.12-.42.22-.35,1.45-.69,2.9-1.05,4.35-.04.17,0,.24.16.34Z"/>
      <path class="cls-1" d="m98.98,11.82c.81.22,1.64.36,2.47.51.17.03.37-.02.55-.05.21-.04.41-.12.62-.15,1.98-.24,3.43-1.28,4.48-2.92.34-.53.47-1.14.59-1.75.15-.71.23-1.4.13-2.14-.2-1.52-1.02-2.66-2.04-3.69-.33-.33-.8-.52-1.22-.76-.37-.21-.75-.45-1.15-.58-.97-.33-1.96-.34-2.97-.21-.51.07-.94.31-1.39.52-.22.1-.46.15-.67.26-.91.49-1.65,1.16-2.13,2.09-.18.33-.45.62-.59.97-.33.79-.43,1.63-.43,2.24-.02,1.58.43,3.04,1.47,4.15.64.68,1.35,1.27,2.26,1.51Zm-.47-6.67c.36-1.27,1.74-2.25,3.24-2.15,1.22.08,2.49,1.29,2.64,2.42.05.33.15.66.22.99-.22.85-.38,1.67-1,2.35-.46.49-.96.71-1.61.8-.64.09-1.29.12-1.81-.21-.83-.52-1.57-1.18-1.75-2.25-.11-.66-.11-1.3.07-1.95Z"/>
      <path class="cls-1" d="m34.15,12.23h-1.5s0,.01,0,.02h1.5v-.02Z"/>
    </g>
  </g>
</svg>