<?xml version="1.0" encoding="utf-8"?>
<!-- Generator: Adobe Illustrator 27.5.0, SVG Export Plug-In . SVG Version: 6.00 Build 0)  -->
<svg version="1.1" id="Capa_2_00000167355972941672554870000009064296236148905119_"
	 xmlns="http://www.w3.org/2000/svg" xmlns:xlink="http://www.w3.org/1999/xlink" x="0px" y="0px" viewBox="0 0 83.8 66.8"
	 style="enable-background:new 0 0 83.8 66.8;" xml:space="preserve">
<style type="text/css">
	.st0{fill:#FFFFFF;}
</style>
<g>
	<path class="st0" d="M70.7,61c2.2-12.3,4.3-24.6,6.5-36.9c0.6-3.2,1.2-6.5,1.7-9.7c0.4-2.5-0.5-4.7-2.6-5.8
		c-0.8-0.4-1.7-0.7-2.6-0.8c-10-1.8-20-3.5-29.9-5.2C39.2,1.7,34.6,0.9,30,0.1c-3-0.5-5.6,1.2-6.3,4.2c0,0.2-0.1,0.4-0.2,0.6
		C21.7,4.6,20,4.2,18.3,4C11.2,2.7,4.2,7.1,2.5,14.2c-1,4.4-1.7,8.9-2.4,13.3c-0.3,1.8,0,3.6,0.6,5.3c1.8,5.3,5.5,8.5,10.9,9.6
		c1.7,0.3,3.4,0.6,5.3,0.9c-0.1,0.4-0.3,0.7-0.4,1c-0.4,2.4-0.9,4.8-1.3,7.2c-0.6,3.3,1.3,5.9,4.6,6.5c14.7,2.6,29.4,5.1,44,7.7
		C67.5,66.3,70.1,64.5,70.7,61z M7.9,38.2c-4.1-2.8-5.8-6.7-5.1-11.6c0.6-3.6,1.2-7.3,1.9-10.9c1.1-6.2,6.6-10.1,12.9-9.3
		c1.8,0.3,3.6,0.6,5.4,0.9c-0.3,1.5-0.5,2.9-0.8,4.4c-0.1,0-0.3,0-0.5-0.1c-1.5-0.3-3-0.5-4.5-0.8c-3.9-0.6-7.3,1.7-8,5.6
		c-0.7,3.6-1.3,7.2-1.9,10.8c-0.7,4,1.8,7.4,5.8,8c1.4,0.2,2.8,0.5,4.2,0.7c0.2,0,0.4,0.1,0.6,0.1c-0.3,1.5-0.5,2.9-0.8,4.4
		C14,40,10.7,40.1,7.9,38.2L7.9,38.2z M21.7,14.4c-1.1,6.5-2.2,12.9-3.3,19.4c-2-0.4-4.1-0.7-6-1.2C10.5,32,9.5,30,9.8,28.1
		c0.6-3.7,1.3-7.5,2-11.2c0.5-2.4,2.5-3.8,5-3.4C18.4,13.8,20.1,14.1,21.7,14.4L21.7,14.4z M64.5,63.2c-14.5-2.5-29-5.1-43.6-7.6
		c-2.6-0.5-3.4-1.5-3-4.2c2.6-14.8,5.2-29.6,7.8-44.4c0.1-0.7,0.2-1.3,0.3-2c0.3-1.7,1.7-2.6,3.4-2.4c8.8,1.5,17.5,3,26.2,4.6
		c6,1.1,12,2.1,18,3.1c0.9,0.1,1.7,0.4,2.2,1.2c0.5,0.7,0.6,1.6,0.4,2.4c-0.9,5.3-1.9,10.6-2.8,15.8c-1.8,10.2-3.6,20.5-5.4,30.7
		C67.8,62.6,66.5,63.5,64.5,63.2L64.5,63.2z"/>
	<path class="st0" d="M41.3,38.6c0.2-1.8-0.5-3.1-2.2-3.7c-0.6-0.2-0.8-0.5-0.7-1.1c0.3-1.5,0.5-3,0.8-4.6c0.1-0.6,0.4-0.8,1-0.8
		c0.8,0.1,1.6-0.1,2.2-0.6c0.8-0.7,1-1.6,1.2-2.6c0.4-2.3-0.5-3.6-2.8-4c-2.6-0.5-5.2-0.9-7.8-1.4c-2-0.3-3.4,0.7-3.8,2.6
		c0,0.3-0.1,0.5-0.1,0.8c-0.3,1.9,0.5,3.1,2.2,3.7c0.6,0.2,0.8,0.5,0.7,1.1c-0.3,1.5-0.5,3-0.8,4.4c-0.1,0.7-0.4,0.9-1.1,0.9
		c-0.7,0-1.3,0.2-2,0.3l0,0.2c-1.1,0.6-1.2,1.7-1.5,2.8c-0.4,2.2,0.6,3.6,2.8,4c2.4,0.4,4.8,0.7,7.1,1.3
		C39.2,42.5,40.9,41.6,41.3,38.6L41.3,38.6z M37.2,39.4c-2.4-0.4-4.8-0.8-7.2-1.2c-0.6-0.1-0.9-0.3-0.7-1c0.1-0.2,0-0.5,0.1-0.7
		c0.1-0.2,0.4-0.5,0.6-0.5c2.2,0,3.3-1,3.7-3.1c0.3-1.5,0.5-3.1,0.8-4.6c0.2-0.9,0-1.7-0.5-2.5l0.1-0.1c-0.6-0.4-1.2-0.9-1.9-1.1
		c-0.6-0.2-0.7-0.5-0.6-1c0-0.1,0.1-0.3,0.1-0.4c0-0.6,0.3-0.9,1-0.7c2.6,0.5,5.1,0.9,7.7,1.3c0.6,0.1,0.8,0.4,0.7,1
		C41,25,41,25.2,41,25.4c-0.1,0.4-0.2,0.5-0.7,0.5c-2.1,0-3.3,0.9-3.7,3c-0.3,1.5-0.6,3.1-0.8,4.6c-0.3,1.8,0.7,3.3,2.4,3.8
		c0.5,0.2,0.6,0.4,0.5,0.9C38.5,39.6,38.5,39.6,37.2,39.4L37.2,39.4z"/>
	<path class="st0" d="M59.5,41C59.5,41,59.4,41,59.5,41c1.6-1.2,3.2-2.2,4.8-3.4c2.8-2.2,3.5-6.3,1.8-9.2c-1.9-3.3-5.6-4.7-9.1-3.3
		c-0.4,0.1-0.6,0.1-1-0.2c-3.1-2.7-7.9-2.3-10.5,0.9c-2.2,2.7-2.3,6.2-0.1,9.3c1.9,2.8,3.9,5.6,5.9,8.3c1.1,1.6,2.3,1.8,3.9,0.7
		C56.6,43.1,58,42.1,59.5,41L59.5,41z M53.1,41.5c-1.9-2.7-3.8-5.4-5.7-8.1c-1.3-1.9-1.3-4-0.1-5.8c1.8-2.5,5.5-2.6,7.5-0.2
		c0.8,1,1.2,1,2.3,0.4c2.2-1.3,4.9-0.7,6.3,1.4c1.4,2.1,0.9,4.9-1.1,6.5c-1.3,1-2.8,2-4.1,2.9c0,0,0,0,0,0c-1.4,1-2.8,2-4.2,3
		C53.6,42,53.4,42,53.1,41.5L53.1,41.5z"/>
</g>
</svg>
